<svg width="24" height="24" viewBox="0 0 24 24" fill="none" xmlns="http://www.w3.org/2000/svg">
<g id="Component 1">
<path id="Vector" d="M17 22C19.7614 22 22 19.7614 22 17C22 14.2386 19.7614 12 17 12C14.2386 12 12 14.2386 12 17C12 19.7614 14.2386 22 17 22Z" stroke="#1C1C1C" stroke-width="1.5"/>
<path id="Vector_2" d="M7.5 13H6.4C4.326 13 3.289 13 2.644 12.356C2 11.71 2 10.674 2 8.6V6.4C2 4.326 2 3.289 2.644 2.644C3.29 2 4.326 2 6.4 2H8.6C10.674 2 11.711 2 12.356 2.644C13 3.29 13 4.326 13 6.4V7.5" stroke="#1C1C1C" stroke-width="1.5"/>
<path id="Vector_3" d="M12.035 19C10.5428 18.7455 9.2005 17.9404 8.27352 16.7437C7.34654 15.547 6.90241 14.0461 7.02899 12.5377C7.15557 11.0293 7.84364 9.6233 8.95709 8.59786C10.0705 7.57243 11.5283 7.00221 13.042 7C14.4699 7.00008 15.8516 7.50577 16.9422 8.42742C18.0328 9.34907 18.7618 10.6271 19 12.035" stroke="#1C1C1C" stroke-width="1.5"/>
</g>
</svg>
