<svg width="24" height="24" viewBox="0 0 24 24" fill="none" xmlns="http://www.w3.org/2000/svg">
<g id="Component 1">
<path id="Vector" d="M2 5L8.913 8.925C11.439 10.358 12.561 10.358 15.087 8.925L22 5" stroke="#1C1C1C" stroke-width="1.5" stroke-linejoin="round"/>
<path id="Vector_2" d="M10.5 19.5001C10.033 19.4939 9.56597 19.4849 9.09903 19.4731C5.95003 19.3941 4.37603 19.3551 3.24503 18.2181C2.11403 17.0821 2.08103 15.5481 2.01503 12.4811C1.99401 11.4968 1.99401 10.5123 2.01503 9.52807C2.08103 6.46107 2.11403 4.92807 3.24503 3.79107C4.37603 2.65507 5.95003 2.61607 9.09903 2.53707C11.0327 2.48829 12.9673 2.48829 14.901 2.53707C18.05 2.61607 19.624 2.65507 20.755 3.79107C21.886 4.92707 21.919 6.46107 21.985 9.52807C21.994 9.98307 21.999 10.1961 22 10.5001" stroke="#1C1C1C" stroke-width="1.5" stroke-linecap="round" stroke-linejoin="round"/>
<path id="Vector_3" d="M19 17C19 17.3978 18.842 17.7794 18.5607 18.0607C18.2794 18.342 17.8978 18.5 17.5 18.5C17.1022 18.5 16.7206 18.342 16.4393 18.0607C16.158 17.7794 16 17.3978 16 17C16 16.6022 16.158 16.2206 16.4393 15.9393C16.7206 15.658 17.1022 15.5 17.5 15.5C17.8978 15.5 18.2794 15.658 18.5607 15.9393C18.842 16.2206 19 16.6022 19 17ZM19 17V17.5C19 17.8978 19.158 18.2794 19.4393 18.5607C19.7206 18.842 20.1022 19 20.5 19C20.8978 19 21.2794 18.842 21.5607 18.5607C21.842 18.2794 22 17.8978 22 17.5V17C22 16.11 21.7361 15.24 21.2416 14.4999C20.7471 13.7599 20.0443 13.1831 19.2221 12.8425C18.3998 12.5019 17.495 12.4128 16.6221 12.5865C15.7492 12.7601 14.9474 13.1887 14.318 13.818C13.6887 14.4474 13.2601 15.2492 13.0865 16.1221C12.9128 16.995 13.0019 17.8998 13.3425 18.7221C13.6831 19.5443 14.2599 20.2471 14.9999 20.7416C15.74 21.2361 16.61 21.5 17.5 21.5" stroke="#1C1C1C" stroke-width="1.5" stroke-linecap="round" stroke-linejoin="round"/>
</g>
</svg>
