<svg width="24" height="24" viewBox="0 0 24 24" fill="none" xmlns="http://www.w3.org/2000/svg">
<g id="Component 1">
<path id="Vector" d="M17.5 17.5L22 22" stroke="#1C1C1C" stroke-width="1.5" stroke-linecap="round" stroke-linejoin="round"/>
<path id="Vector_2" d="M20 11C20 8.61305 19.0518 6.32387 17.364 4.63604C15.6761 2.94821 13.3869 2 11 2C8.61305 2 6.32387 2.94821 4.63604 4.63604C2.94821 6.32387 2 8.61305 2 11C2 13.3869 2.94821 15.6761 4.63604 17.364C6.32387 19.0518 8.61305 20 11 20C13.3869 20 15.6761 19.0518 17.364 17.364C19.0518 15.6761 20 13.3869 20 11Z" stroke="#1C1C1C" stroke-width="1.5" stroke-linejoin="round"/>
<path id="Vector_3" d="M9.492 7.5C8.776 7.543 8.32 7.663 7.992 7.991C7.662 8.32 7.543 8.776 7.5 9.492M12.508 7.5C13.224 7.543 13.68 7.663 14.008 7.991C14.338 8.32 14.457 8.776 14.5 9.492M14.492 12.622C14.443 13.273 14.319 13.698 14.009 14.009C13.68 14.337 13.224 14.457 12.508 14.5M9.492 14.5C8.776 14.457 8.32 14.337 7.992 14.009C7.681 13.698 7.557 13.273 7.508 12.621" stroke="#1C1C1C" stroke-width="1.5" stroke-linecap="round" stroke-linejoin="round"/>
</g>
</svg>
