<svg width="24" height="24" viewBox="0 0 24 24" fill="none" xmlns="http://www.w3.org/2000/svg">
<g id="Component 1">
<path id="Vector" d="M14.926 2.91106L8.274 6.10506C7.77186 6.34951 7.20091 6.41377 6.657 6.28706C6.42764 6.22958 6.19572 6.18286 5.962 6.14706C4.137 5.94006 3 7.38406 3 9.04506V9.95706C3 11.6171 4.137 13.0621 5.962 12.8531C6.19581 12.8182 6.42776 12.7718 6.657 12.7141C7.20102 12.5876 7.77201 12.6522 8.274 12.8971L14.926 16.0901C16.453 16.8231 17.217 17.1901 18.068 16.9041C18.92 16.6181 19.212 16.0051 19.796 14.7791C20.5883 13.1324 20.9996 11.3284 20.9996 9.50106C20.9996 7.67369 20.5883 5.86976 19.796 4.22306C19.212 2.99706 18.92 2.38306 18.068 2.09806C17.217 1.81206 16.453 2.17706 14.926 2.91106Z" stroke="#1C1C1C" stroke-width="1.5" stroke-linecap="round" stroke-linejoin="round"/>
<path id="Vector_2" d="M11.4581 20.77L9.96711 22C6.60511 19.334 7.01611 18.062 7.01611 13H8.15011C8.61011 15.86 9.69511 17.216 11.1931 18.197C12.1151 18.801 12.3051 20.072 11.4581 20.77Z" stroke="#1C1C1C" stroke-width="1.5" stroke-linecap="round" stroke-linejoin="round"/>
<path id="Vector_3" d="M7.5 12.5V6.5" stroke="#141B34" stroke-width="1.5" stroke-linecap="round" stroke-linejoin="round"/>
</g>
</svg>
