<svg width="90" height="117" viewBox="0 0 90 117" fill="none" xmlns="http://www.w3.org/2000/svg">
<g id="Component 1" clip-path="url(#clip0_6_2090)">
<path id="Vector" d="M45.8201 55.4641C49.5371 51.7471 52.5441 47.974 54.8401 44.148C57.1361 40.321 58.2841 36.932 58.2841 33.98C58.2841 30.153 56.8631 27.2011 54.0201 25.1241C51.2871 23.0471 47.4601 22.0081 42.5401 22.0081C37.6201 22.0081 32.3171 23.3201 26.6321 25.9441C21.0561 28.4591 15.6991 31.903 10.5601 36.2761L0.39209 17.5801C7.49909 12.4411 14.8791 8.39605 22.5321 5.44405C30.2951 2.38305 38.2221 0.852051 46.3121 0.852051C53.9651 0.852051 60.6891 2.05505 66.4841 4.46005C72.3881 6.86505 76.9801 10.3101 80.2601 14.7921C83.6501 19.1651 85.3441 24.3591 85.3441 30.3721C85.3441 36.3851 83.2671 42.6171 79.1121 49.0681C75.0671 55.41 69.8191 61.8601 63.3681 68.4201L28.7641 103.844L25.4841 95.9721H89.6081V116.8H3.34409V99.5801L45.8201 55.4641Z" fill="url(#paint0_linear_6_2090)"/>
<path id="Vector_2" d="M45.8201 55.4641C49.5371 51.7471 52.5441 47.974 54.8401 44.148C57.1361 40.321 58.2841 36.932 58.2841 33.98C58.2841 30.153 56.8631 27.2011 54.0201 25.1241C51.2871 23.0471 47.4601 22.0081 42.5401 22.0081C37.6201 22.0081 32.3171 23.3201 26.6321 25.9441C21.0561 28.4591 15.6991 31.903 10.5601 36.2761L0.39209 17.5801C7.49909 12.4411 14.8791 8.39605 22.5321 5.44405C30.2951 2.38305 38.2221 0.852051 46.3121 0.852051C53.9651 0.852051 60.6891 2.05505 66.4841 4.46005C72.3881 6.86505 76.9801 10.3101 80.2601 14.7921C83.6501 19.1651 85.3441 24.3591 85.3441 30.3721C85.3441 36.3851 83.2671 42.6171 79.1121 49.0681C75.0671 55.41 69.8191 61.8601 63.3681 68.4201L28.7641 103.844L25.4841 95.9721H89.6081V116.8H3.34409V99.5801L45.8201 55.4641Z" fill="url(#paint1_linear_6_2090)"/>
</g>
<defs>
<linearGradient id="paint0_linear_6_2090" x1="45.0001" y1="0.852051" x2="45.0001" y2="116.8" gradientUnits="userSpaceOnUse">
<stop stop-color="#32D9F6"/>
<stop offset="1" stop-color="#1C1C1C" stop-opacity="0"/>
</linearGradient>
<linearGradient id="paint1_linear_6_2090" x1="45.0001" y1="0.852051" x2="45.0001" y2="116.8" gradientUnits="userSpaceOnUse">
<stop stop-color="#32D9F6"/>
<stop offset="1" stop-color="#1C1C1C" stop-opacity="0"/>
</linearGradient>
<clipPath id="clip0_6_2090">
<rect width="90" height="117" fill="white"/>
</clipPath>
</defs>
</svg>
