<svg width="92" height="117" viewBox="0 0 92 117" fill="none" xmlns="http://www.w3.org/2000/svg">
<g id="Component 1">
<path id="Vector" d="M58.0539 48.412C67.8939 49.505 75.8209 52.785 81.8339 58.252C87.9569 63.609 91.0179 70.771 91.0179 79.736C91.0179 86.952 89.1049 93.403 85.2779 99.088C81.5609 104.664 76.2579 109.037 69.3699 112.208C62.4819 115.269 54.3369 116.8 44.9339 116.8C36.7339 116.8 28.6979 115.597 20.8259 113.192C13.0629 110.677 6.44893 107.397 0.981934 103.352L10.9859 84.82C15.6869 88.756 20.7709 91.763 26.2379 93.84C31.7049 95.917 37.2809 96.956 42.9659 96.956C47.7759 96.956 51.8759 96.3 55.2659 94.988C58.6559 93.567 61.2249 91.598 62.9739 89.084C64.7239 86.46 65.5979 83.454 65.5979 80.064C65.5979 74.707 63.5749 70.661 59.5299 67.928C55.5939 65.195 50.0179 63.828 42.8019 63.828H24.2699V49.396L61.8259 12.824L65.2699 21.024H6.88593L6.72193 0.687988H85.2779V15.776L43.6219 55.3L40.6699 45.952L58.0539 48.412Z" fill="url(#paint0_linear_6_2103)"/>
<path id="Vector_2" d="M58.0539 48.412C67.8939 49.505 75.8209 52.785 81.8339 58.252C87.9569 63.609 91.0179 70.771 91.0179 79.736C91.0179 86.952 89.1049 93.403 85.2779 99.088C81.5609 104.664 76.2579 109.037 69.3699 112.208C62.4819 115.269 54.3369 116.8 44.9339 116.8C36.7339 116.8 28.6979 115.597 20.8259 113.192C13.0629 110.677 6.44893 107.397 0.981934 103.352L10.9859 84.82C15.6869 88.756 20.7709 91.763 26.2379 93.84C31.7049 95.917 37.2809 96.956 42.9659 96.956C47.7759 96.956 51.8759 96.3 55.2659 94.988C58.6559 93.567 61.2249 91.598 62.9739 89.084C64.7239 86.46 65.5979 83.454 65.5979 80.064C65.5979 74.707 63.5749 70.661 59.5299 67.928C55.5939 65.195 50.0179 63.828 42.8019 63.828H24.2699V49.396L61.8259 12.824L65.2699 21.024H6.88593L6.72193 0.687988H85.2779V15.776L43.6219 55.3L40.6699 45.952L58.0539 48.412Z" fill="url(#paint1_linear_6_2103)"/>
</g>
<defs>
<linearGradient id="paint0_linear_6_2103" x1="45.9999" y1="0.687988" x2="45.9999" y2="116.8" gradientUnits="userSpaceOnUse">
<stop stop-color="#3248F6"/>
<stop offset="1" stop-color="#1C1C1C" stop-opacity="0"/>
</linearGradient>
<linearGradient id="paint1_linear_6_2103" x1="45.9999" y1="0.687988" x2="45.9999" y2="116.8" gradientUnits="userSpaceOnUse">
<stop stop-color="#3248F6"/>
<stop offset="1" stop-color="#1C1C1C" stop-opacity="0"/>
</linearGradient>
</defs>
</svg>
