<svg width="80" height="80" viewBox="0 0 80 80" fill="none" xmlns="http://www.w3.org/2000/svg">
<g id="Component 1" clip-path="url(#clip0_8_2899)">
<path id="Vector" d="M80 40C80 17.9086 62.0914 0 40 0C17.9086 0 0 17.9086 0 40C0 62.0914 17.9086 80 40 80C62.0914 80 80 62.0914 80 40Z" fill="url(#paint0_radial_8_2899)"/>
<path id="Vector_2" fill-rule="evenodd" clip-rule="evenodd" d="M50.1561 36.102C50.3997 36.0011 50.6678 35.9746 50.9265 36.0261C51.1851 36.0775 51.4227 36.2045 51.6091 36.391L54.2761 39.057C54.7961 39.577 54.7961 40.422 54.2761 40.943L51.6091 43.609C51.4227 43.7955 51.1852 43.9226 50.9266 43.9742C50.668 44.0257 50.4 43.9994 50.1563 43.8985C49.9127 43.7977 49.7044 43.6269 49.5579 43.4077C49.4114 43.1884 49.3331 42.9307 49.3331 42.667V41.333H46.6671C46.3136 41.333 45.9745 41.1926 45.7245 40.9426C45.4745 40.6926 45.3341 40.3535 45.3341 40C45.3341 39.6465 45.4745 39.3074 45.7245 39.0574C45.9745 38.8075 46.3136 38.667 46.6671 38.667H49.3331V37.333C49.3331 36.794 49.6581 36.308 50.1561 36.102ZM29.8441 36.102C30.3421 36.308 30.6671 36.794 30.6671 37.333V38.667H33.3331C33.6866 38.667 34.0257 38.8075 34.2757 39.0574C34.5257 39.3074 34.6661 39.6465 34.6661 40C34.6661 40.3535 34.5257 40.6926 34.2757 40.9426C34.0257 41.1926 33.6866 41.333 33.3331 41.333H30.6671V42.667C30.6671 42.9307 30.5888 43.1884 30.4423 43.4077C30.2958 43.6269 30.0875 43.7977 29.8439 43.8985C29.6002 43.9994 29.3322 44.0257 29.0736 43.9742C28.815 43.9226 28.5775 43.7955 28.3911 43.609L25.7241 40.943C25.6002 40.8192 25.5019 40.6722 25.4348 40.5104C25.3678 40.3486 25.3333 40.1752 25.3333 40C25.3333 39.8249 25.3678 39.6514 25.4348 39.4896C25.5019 39.3278 25.6002 39.1808 25.7241 39.057L28.3911 36.391C28.5774 36.2043 28.815 36.0772 29.0736 36.0255C29.3322 35.9739 29.6004 36.0012 29.8441 36.102ZM33.3331 34.333C33.3331 32.6533 34.0004 31.0423 35.1881 29.8546C36.3759 28.6668 37.9869 27.9995 39.6666 27.9995C41.3464 27.9995 42.9573 28.6668 44.1451 29.8546C45.3328 31.0423 46.0001 32.6533 46.0001 34.333C46.0001 36.0128 45.3328 37.6237 44.1451 38.8115C42.9573 39.9992 41.3464 40.6665 39.6666 40.6665C37.9869 40.6665 36.3759 39.9992 35.1881 38.8115C34.0004 37.6237 33.3331 36.0128 33.3331 34.333ZM28.0001 53C28.0001 47.293 32.6261 42.667 38.3331 42.667H41.0001C46.7071 42.667 51.3331 47.293 51.3331 53C51.3331 53.2652 51.2277 53.5196 51.0402 53.7071C50.8527 53.8947 50.5983 54 50.3331 54H29.0001C28.7349 54 28.4805 53.8947 28.293 53.7071C28.1055 53.5196 28.0001 53.2652 28.0001 53Z" fill="#3291F6"/>
</g>
<defs>
<radialGradient id="paint0_radial_8_2899" cx="0" cy="0" r="1" gradientUnits="userSpaceOnUse" gradientTransform="translate(40 40) rotate(87.594) scale(63.5227)">
<stop offset="0.52" stop-color="white"/>
<stop offset="1" stop-color="#3291F6"/>
</radialGradient>
<clipPath id="clip0_8_2899">
<rect width="80" height="80" fill="white"/>
</clipPath>
</defs>
</svg>
