<svg width="80" height="80" viewBox="0 0 80 80" fill="none" xmlns="http://www.w3.org/2000/svg">
<g id="Component 1" clip-path="url(#clip0_8_2888)">
<path id="Vector" d="M80 40C80 17.9086 62.0914 0 40 0C17.9086 0 0 17.9086 0 40C0 62.0914 17.9086 80 40 80C62.0914 80 80 62.0914 80 40Z" fill="url(#paint0_radial_8_2888)"/>
<path id="Vector_2" d="M41.665 27.2599C41.0702 26.8733 40.376 26.6675 39.6665 26.6675C38.9571 26.6675 38.2628 26.8733 37.668 27.2599L26.395 34.5869C26.3528 34.6143 26.3114 34.6429 26.271 34.6729C26.474 34.7569 26.669 34.8529 26.851 34.9639C29.274 36.4224 31.7074 37.8634 34.151 39.2869C35.346 39.9849 36.5424 40.6805 37.74 41.3739C38.3136 41.0136 38.9767 40.8213 39.654 40.8188C40.3314 40.8164 40.9958 41.0038 41.572 41.3599L42.259 40.9239C43.1995 40.3307 44.1445 39.7447 45.094 39.1659C47.358 37.7859 50.22 36.1019 52.55 34.9259C52.722 34.8399 52.904 34.7629 53.092 34.6959C53.042 34.6579 52.992 34.6209 52.938 34.5859L41.665 27.2599ZM54 36.5009C53.796 36.5609 53.61 36.6309 53.45 36.7119C51.196 37.8489 48.39 39.4979 46.135 40.8729C45.01 41.5589 44.028 42.1729 43.327 42.6149L43.284 42.6419C44.9987 43.9508 46.7027 45.2735 48.396 46.6099C50.718 48.4479 52.929 50.2619 53.737 51.1429L53.749 51.1559C53.9154 50.7302 54.0005 50.277 54 49.8199V36.5009ZM52.507 52.7729C52.4276 52.6786 52.3463 52.5859 52.263 52.4949C51.589 51.7599 49.532 50.0599 47.155 48.1789C44.814 46.3249 42.255 44.3689 40.655 43.1529C40.3714 42.9358 40.0242 42.8181 39.667 42.8181C39.3098 42.8181 38.9626 42.9358 38.679 43.1529C36.4965 44.8077 34.3298 46.4831 32.179 48.1789C29.802 50.0589 27.745 51.7599 27.07 52.4949C26.987 52.5869 26.905 52.6789 26.825 52.7719C27.4547 53.237 28.2172 53.4873 29 53.4859H50.333C51.1154 53.4874 51.8775 53.2374 52.507 52.7729ZM25.585 51.1569C25.5891 51.1526 25.5931 51.1483 25.597 51.1439C26.405 50.2619 28.617 48.4479 30.937 46.6099C32.6151 45.2856 34.3038 43.9749 36.003 42.6779C35.283 42.2609 34.281 41.6779 33.143 41.0139C30.69 39.5851 28.2473 38.1388 25.815 36.6749C25.6629 36.5853 25.5021 36.5112 25.335 36.4539L25.333 36.5439V49.8199C25.333 50.2909 25.423 50.7419 25.585 51.1569Z" fill="#32D9F6"/>
</g>
<defs>
<radialGradient id="paint0_radial_8_2888" cx="0" cy="0" r="1" gradientUnits="userSpaceOnUse" gradientTransform="translate(40 40) rotate(87.594) scale(63.5227)">
<stop offset="0.52" stop-color="white"/>
<stop offset="1" stop-color="#32D9F6"/>
</radialGradient>
<clipPath id="clip0_8_2888">
<rect width="80" height="80" fill="white"/>
</clipPath>
</defs>
</svg>
