<svg width="80" height="80" viewBox="0 0 80 80" fill="none" xmlns="http://www.w3.org/2000/svg">
<g id="Component 1" clip-path="url(#clip0_8_2911)">
<path id="Vector" d="M80 40C80 17.9086 62.0914 0 40 0C17.9086 0 0 17.9086 0 40C0 62.0914 17.9086 80 40 80C62.0914 80 80 62.0914 80 40Z" fill="url(#paint0_radial_8_2911)"/>
<path id="Vector_2" fill-rule="evenodd" clip-rule="evenodd" d="M53.34 25.6669C51.1741 25.6545 49.017 25.9439 46.931 26.5269C44.899 27.1069 42.975 28.0069 41.689 29.2849L37.908 32.7799C37.8636 32.821 37.8089 32.8492 37.7497 32.8615C37.6905 32.8738 37.6291 32.8698 37.572 32.8499L35.907 32.2719C35.2564 32.0458 34.5553 32.0075 33.884 32.1613C33.2126 32.3152 32.5982 32.655 32.111 33.1419L30.626 34.6269C30.4385 34.8144 30.3332 35.0687 30.3332 35.3339C30.3332 35.599 30.4385 35.8534 30.626 36.0409L43.96 49.3749C44.1475 49.5624 44.4018 49.6677 44.667 49.6677C44.9322 49.6677 45.1865 49.5624 45.374 49.3749L46.859 47.8899C47.3459 47.4027 47.6857 46.7883 47.8396 46.1169C47.9934 45.4456 47.9551 44.7445 47.729 44.0939L47.151 42.4279C47.1312 42.3708 47.1272 42.3094 47.1395 42.2502C47.1519 42.191 47.18 42.1363 47.221 42.0919L50.716 38.3119C53.217 35.7979 54.333 31.4209 54.333 26.6669C54.333 26.403 54.2287 26.1499 54.0429 25.9626C53.8571 25.7753 53.6038 25.669 53.34 25.6669ZM48.266 31.7169C48.1422 31.593 47.9953 31.4948 47.8335 31.4278C47.6718 31.3607 47.4984 31.3262 47.3233 31.3261C47.1483 31.3261 46.9749 31.3605 46.8131 31.4275C46.6513 31.4944 46.5043 31.5926 46.3805 31.7164C46.2567 31.8402 46.1584 31.9871 46.0914 32.1488C46.0243 32.3106 45.9898 32.4839 45.9897 32.659C45.9897 32.8341 46.0241 33.0075 46.0911 33.1693C46.1581 33.331 46.2562 33.4781 46.38 33.6019L46.388 33.6099C46.5118 33.7337 46.6587 33.832 46.8205 33.899C46.9822 33.9661 47.1556 34.0006 47.3306 34.0006C47.5057 34.0007 47.6791 33.9662 47.8409 33.8993C48.0027 33.8323 48.1497 33.7342 48.2735 33.6104C48.3973 33.4866 48.4956 33.3397 48.5626 33.1779C48.6297 33.0162 48.6642 32.8428 48.6642 32.6677C48.6643 32.4927 48.6298 32.3193 48.5629 32.1575C48.4959 31.9957 48.3978 31.8487 48.274 31.7249L48.266 31.7169ZM31.61 40.3899C32.13 40.9109 32.13 41.7549 31.61 42.2759L27.61 46.2759C27.4862 46.3997 27.3393 46.498 27.1775 46.565C27.0158 46.6321 26.8424 46.6666 26.6673 46.6666C26.4923 46.6667 26.3189 46.6322 26.1571 46.5653C25.9953 46.4983 25.8483 46.4002 25.7245 46.2764C25.6007 46.1526 25.5024 46.0057 25.4354 45.8439C25.3683 45.6822 25.3338 45.5088 25.3337 45.3337C25.3337 45.1587 25.3681 44.9853 25.4351 44.8235C25.5021 44.6617 25.6002 44.5147 25.724 44.3909L29.724 40.3909C29.974 40.1409 30.313 40.0005 30.6665 40.0005C31.02 40.0005 31.359 40.1409 31.609 40.3909L31.61 40.3899ZM35.61 44.3899C36.13 44.9109 36.13 45.7549 35.61 46.2759L27.61 54.2759C27.36 54.526 27.0209 54.6665 26.6673 54.6666C26.3137 54.6667 25.9746 54.5264 25.7245 54.2764C25.4744 54.0264 25.3338 53.6873 25.3337 53.3337C25.3336 52.9801 25.474 52.641 25.724 52.3909L33.724 44.3909C33.8477 44.267 33.9946 44.1687 34.1563 44.1017C34.3181 44.0346 34.4914 44.0001 34.6665 44.0001C34.8416 44.0001 35.0149 44.0346 35.1766 44.1017C35.3384 44.1687 35.4853 44.267 35.609 44.3909L35.61 44.3899ZM39.61 48.3899C40.13 48.9109 40.13 49.7549 39.61 50.2759L35.61 54.2759C35.4862 54.3997 35.3393 54.498 35.1775 54.565C35.0158 54.6321 34.8424 54.6666 34.6673 54.6666C34.4923 54.6667 34.3189 54.6322 34.1571 54.5653C33.9953 54.4983 33.8483 54.4002 33.7245 54.2764C33.6007 54.1526 33.5024 54.0057 33.4354 53.8439C33.3683 53.6822 33.3338 53.5088 33.3337 53.3337C33.3337 53.1587 33.3681 52.9853 33.4351 52.8235C33.5021 52.6617 33.6002 52.5147 33.724 52.3909L37.724 48.3909C37.8477 48.267 37.9946 48.1687 38.1563 48.1017C38.3181 48.0346 38.4914 48.0001 38.6665 48.0001C38.8416 48.0001 39.0149 48.0346 39.1766 48.1017C39.3384 48.1687 39.4853 48.267 39.609 48.3909L39.61 48.3899Z" fill="#3248F6"/>
</g>
<defs>
<radialGradient id="paint0_radial_8_2911" cx="0" cy="0" r="1" gradientUnits="userSpaceOnUse" gradientTransform="translate(40 40) rotate(87.594) scale(63.5227)">
<stop offset="0.52" stop-color="white"/>
<stop offset="1" stop-color="#3248F6"/>
</radialGradient>
<clipPath id="clip0_8_2911">
<rect width="80" height="80" fill="white"/>
</clipPath>
</defs>
</svg>
