<svg width="80" height="80" viewBox="0 0 80 80" fill="none" xmlns="http://www.w3.org/2000/svg">
<g id="Component 1" clip-path="url(#clip0_8_2922)">
<path id="Vector" d="M80 40C80 17.9086 62.0914 0 40 0C17.9086 0 0 17.9086 0 40C0 62.0914 17.9086 80 40 80C62.0914 80 80 62.0914 80 40Z" fill="url(#paint0_radial_8_2922)"/>
<path id="Vector_2" fill-rule="evenodd" clip-rule="evenodd" d="M41.333 32.333C41.333 30.6533 42.0003 29.0423 43.188 27.8546C44.3758 26.6668 45.9868 25.9995 47.6665 25.9995C49.3462 25.9995 50.9572 26.6668 52.145 27.8546C53.3327 29.0423 54 30.6533 54 32.333C54 34.0128 53.3327 35.6237 52.145 36.8115C50.9572 37.9992 49.3462 38.6665 47.6665 38.6665C45.9868 38.6665 44.3758 37.9992 43.188 36.8115C42.0003 35.6237 41.333 34.0128 41.333 32.333ZM26 32.333C26 30.6533 26.6673 29.0423 27.855 27.8546C29.0428 26.6668 30.6538 25.9995 32.3335 25.9995C34.0132 25.9995 35.6242 26.6668 36.812 27.8546C37.9997 29.0423 38.667 30.6533 38.667 32.333C38.667 34.0128 37.9997 35.6237 36.812 36.8115C35.6242 37.9992 34.0132 38.6665 32.3335 38.6665C30.6538 38.6665 29.0428 37.9992 27.855 36.8115C26.6673 35.6237 26 34.0128 26 32.333ZM41.333 47.667C41.333 45.9873 42.0003 44.3763 43.188 43.1885C44.3758 42.0008 45.9868 41.3335 47.6665 41.3335C49.3462 41.3335 50.9572 42.0008 52.145 43.1885C53.3327 44.3763 54 45.9873 54 47.667C54 49.3468 53.3327 50.9577 52.145 52.1455C50.9572 53.3332 49.3462 54.0005 47.6665 54.0005C45.9868 54.0005 44.3758 53.3332 43.188 52.1455C42.0003 50.9577 41.333 49.3468 41.333 47.667ZM26 47.667C26 46.8354 26.1638 46.0118 26.4821 45.2435C26.8003 44.4751 27.2668 43.777 27.8549 43.1889C28.443 42.6008 29.1411 42.1343 29.9095 41.8161C30.6778 41.4978 31.5013 41.334 32.333 41.334C33.1647 41.334 33.9882 41.4978 34.7565 41.8161C35.5249 42.1343 36.223 42.6008 36.8111 43.1889C37.3992 43.777 37.8657 44.4751 38.1839 45.2435C38.5022 46.0118 38.666 46.8354 38.666 47.667C38.666 49.3466 37.9988 50.9575 36.8111 52.1451C35.6234 53.3328 34.0126 54 32.333 54C30.6534 54 29.0426 53.3328 27.8549 52.1451C26.6672 50.9575 26 49.3466 26 47.667Z" fill="#F4C133"/>
</g>
<defs>
<radialGradient id="paint0_radial_8_2922" cx="0" cy="0" r="1" gradientUnits="userSpaceOnUse" gradientTransform="translate(40 40) rotate(87.594) scale(63.5227)">
<stop offset="0.52" stop-color="white"/>
<stop offset="1" stop-color="#F4C133"/>
</radialGradient>
<clipPath id="clip0_8_2922">
<rect width="80" height="80" fill="white"/>
</clipPath>
</defs>
</svg>
